<?xml version="1.0" encoding="UTF-8"?>
<!DOCTYPE svg PUBLIC "-//W3C//DTD SVG 1.1//EN" "http://www.w3.org/Graphics/SVG/1.1/DTD/svg11.dtd">
<!-- Creator: CorelDRAW -->
<svg xmlns="http://www.w3.org/2000/svg" xml:space="preserve" width="210mm" height="297mm" version="1.1" style="shape-rendering:geometricPrecision; text-rendering:geometricPrecision; image-rendering:optimizeQuality; fill-rule:evenodd; clip-rule:evenodd"
viewBox="0 0 21000 29700"
 xmlns:xlink="http://www.w3.org/1999/xlink">
 <defs>
  <style type="text/css">
   <![CDATA[
    .fil3 {fill:none}
    .fil12 {fill:#FEFEFE}
    .fil1 {fill:#FFF000}
    .fil4 {fill:#FFE100}
    .fil9 {fill:#F6AE45}
    .fil5 {fill:#F08519}
    .fil10 {fill:#CB252A}
    .fil6 {fill:#882729}
    .fil11 {fill:#137D7A}
    .fil2 {fill:#007D44}
    .fil7 {fill:#0251A1}
    .fil0 {fill:#1D1819}
    .fil8 {fill:#1D1819;fill-rule:nonzero}
   ]]>
  </style>
 </defs>
 <g id="Layer_x0020_1">
  <metadata id="CorelCorpID_0Corel-Layer"/>
  <g id="Logo_x0020_Kabupaten_x0020_Pekalongan.cdr">
   <path class="fil0" d="M6195 7335c-2069,908 -841,3938 1340,4744 -31,21 -64,39 -97,55l0 1249c-627,-450 -1204,-1212 -1629,-1812 -31,1086 100,2070 686,2763 -659,-512 -1132,-1225 -1116,-1702 -107,354 -149,738 -122,1121 -2197,-3166 -2261,-5973 938,-6418z"/>
   <path class="fil1" d="M5574 7589c-597,172 -1150,485 -1473,1042 -601,1035 -159,2459 314,3454 237,499 522,982 834,1444 0,-307 44,-611 130,-897 -16,477 457,1190 1116,1702 -586,-693 -717,-1677 -686,-2763 425,600 1002,1362 1629,1812l0 -1208c-520,-202 -990,-528 -1378,-928 -406,-419 -740,-941 -917,-1500 -158,-499 -196,-1052 5,-1545 98,-242 244,-446 426,-613z"/>
   <path class="fil2" d="M5189 7857c-401,177 -754,442 -982,835 -577,995 -134,2387 319,3340 208,437 455,868 730,1289 15,-236 57,-468 123,-689 -16,477 457,1190 1116,1702 -586,-693 -717,-1677 -686,-2763 425,600 1002,1362 1629,1812l0 -1077c-554,-207 -1055,-549 -1466,-973 -420,-434 -763,-972 -946,-1549 -167,-527 -203,-1108 8,-1628 43,-107 95,-206 155,-299z"/>
   <path class="fil1" d="M4906 8146c-239,153 -445,352 -593,608 -553,953 -109,2315 324,3225 184,388 399,770 638,1145 21,-168 56,-333 104,-492 -16,477 457,1190 1116,1702 -586,-693 -717,-1677 -686,-2763 425,600 1002,1362 1629,1812l0 -948c-576,-206 -1108,-557 -1554,-1017 -433,-447 -786,-1001 -975,-1597 -172,-542 -209,-1137 -3,-1675z"/>
   <path class="fil2" d="M4686 8475c-103,99 -193,212 -267,341 -529,910 -84,2244 328,3111 163,342 350,681 557,1013 20,-104 45,-207 75,-308 -16,477 457,1190 1116,1702 -586,-693 -717,-1677 -686,-2763 425,600 1002,1362 1629,1812l0 -818c-609,-210 -1172,-577 -1642,-1062 -446,-460 -810,-1031 -1004,-1645 -141,-446 -194,-925 -106,-1383z"/>
   <path class="fil1" d="M4521 8884c-498,868 -54,2168 337,2990 143,301 306,600 484,894 11,-46 24,-91 37,-136 -2,75 7,156 27,241 293,471 625,931 979,1373 37,30 73,60 111,89 -566,-669 -708,-1608 -690,-2648 -33,-33 -66,-65 -98,-98 -460,-475 -833,-1062 -1033,-1694 -103,-327 -161,-670 -154,-1011zm2917 4499l0 -689c-498,-166 -966,-432 -1382,-781 391,526 870,1102 1382,1470z"/>
   <path class="fil2" d="M4447 9479c-120,775 225,1718 522,2342 300,633 688,1254 1126,1848 -218,-528 -291,-1148 -291,-1815 -62,-58 -124,-118 -184,-180 -473,-488 -856,-1092 -1062,-1742 -47,-148 -84,-300 -111,-453zm2991 3904l0 -560c-386,-124 -756,-307 -1098,-541 329,412 704,818 1098,1101z"/>
   <path class="fil1" d="M4606 10396c98,505 298,1004 473,1373 244,511 544,1015 883,1503 -103,-385 -148,-806 -156,-1251 -94,-83 -185,-170 -274,-262 -370,-382 -698,-852 -926,-1363zm2832 2987l0 -431c-293,-92 -577,-216 -847,-369 264,303 550,586 847,800z"/>
   <path class="fil2" d="M5033 11361c53,129 106,248 157,355 198,417 435,828 700,1230 -44,-242 -68,-496 -79,-759 -127,-107 -250,-221 -367,-342 -144,-149 -282,-311 -411,-484zm2405 2022l0 -303c-207,-63 -410,-141 -607,-234 194,202 398,387 607,537z"/>
   <path class="fil1" d="M5518 12090c102,189 212,376 329,562 -12,-98 -21,-198 -27,-299 -104,-83 -205,-171 -302,-263zm1920 1293l0 -175c-123,-36 -244,-78 -364,-124 119,109 241,210 364,299z"/>
   <path class="fil3" d="M7438 13383l0 -48c-35,-10 -70,-20 -105,-31 35,27 70,54 105,79z"/>
   <path class="fil0" d="M3586 10815c425,797 992,1498 1725,2087 -188,927 43,1991 792,2731 -419,-259 -719,-575 -783,-878 -13,266 8,535 64,796 -1715,-1384 -2244,-2975 -1798,-4736zm1861 2193c174,133 356,259 548,379 108,354 269,673 500,947 -502,-389 -896,-896 -1048,-1326z"/>
   <path class="fil1" d="M3636 11155c-91,488 -108,983 -22,1477 192,1102 865,2003 1736,2734 -30,-202 -40,-407 -30,-611 64,303 364,619 783,878 -712,-704 -956,-1701 -816,-2594 -643,-506 -1202,-1127 -1651,-1884zm2420 2414c-175,-105 -346,-217 -511,-336 191,374 534,778 951,1102 -192,-227 -335,-484 -440,-766z"/>
   <path class="fil2" d="M3708 11501c-42,368 -37,739 27,1110 179,1027 792,1877 1594,2576 -13,-144 -16,-288 -9,-432 64,303 364,619 783,878 -675,-667 -929,-1597 -835,-2453 -596,-460 -1123,-1014 -1560,-1679zm2425 2256c-150,-86 -296,-177 -440,-273 198,298 478,599 803,850 -149,-175 -268,-368 -363,-577z"/>
   <path class="fil1" d="M3805 11856c-7,244 8,489 51,734 167,957 725,1757 1462,2423 -3,-86 -3,-172 2,-258 42,200 188,407 403,598 123,96 249,189 378,279l2 1c-637,-630 -899,-1494 -847,-2308 -544,-410 -1032,-896 -1451,-1469zm2427 2096c-112,-61 -222,-124 -331,-190 169,202 371,399 595,573 -101,-120 -189,-247 -264,-383z"/>
   <path class="fil2" d="M3935 12224c8,115 22,230 42,345 155,890 663,1643 1340,2277 0,-30 1,-61 3,-91 9,44 23,89 42,133 130,119 265,234 405,344 -363,-527 -527,-1152 -517,-1759 -483,-356 -925,-770 -1315,-1249zm2426 1935c-59,-30 -118,-61 -176,-93 98,94 202,184 311,269 -48,-57 -93,-116 -135,-176z"/>
   <path class="fil1" d="M4110 12615c178,907 740,1669 1469,2303 -208,-406 -314,-851 -328,-1292 -411,-296 -793,-631 -1141,-1011z"/>
   <path class="fil2" d="M4354 13040c216,602 610,1133 1100,1599 -107,-277 -171,-567 -194,-857 -319,-223 -622,-470 -906,-742z"/>
   <path class="fil1" d="M4711 13521c176,307 400,594 657,860 -41,-144 -71,-291 -91,-438 -195,-132 -383,-273 -566,-422z"/>
   <path class="fil2" d="M5258 14079c17,19 34,39 51,58 -2,-9 -4,-19 -5,-28 -16,-10 -31,-20 -46,-30z"/>
   <path class="fil0" d="M3512 13725c296,560 916,1054 1814,1435 73,890 528,1751 1374,2227 -375,-92 -671,-253 -808,-473 -1,179 32,356 94,526 -1954,-833 -2588,-2127 -2474,-3715zm2143 1565c68,25 137,49 208,73 73,94 153,184 240,270 -172,-106 -324,-222 -448,-343z"/>
   <path class="fil1" d="M6014 15541c-31,-10 -62,-20 -93,-30 58,42 119,83 182,122 -30,-30 -60,-61 -89,-92zm-673 -242c-634,-261 -1297,-645 -1719,-1182 4,397 63,792 202,1168 306,824 939,1390 1698,1799 136,73 275,140 417,203 -32,-122 -48,-247 -47,-373 137,220 433,381 808,473 -802,-451 -1252,-1248 -1359,-2088z"/>
   <path class="fil2" d="M5362 15440c-566,-227 -1157,-547 -1599,-983 26,267 82,531 176,785 295,795 909,1340 1642,1734 106,57 216,112 327,163 -11,-74 -16,-149 -16,-225 137,220 433,381 808,473 -757,-426 -1201,-1160 -1338,-1947z"/>
   <path class="fil1" d="M5391 15583c-502,-194 -1024,-459 -1458,-810 30,145 69,287 121,426 285,767 879,1289 1585,1669 83,45 168,88 255,129 -1,-28 -2,-55 -2,-83 29,47 66,91 109,133 150,68 305,131 463,190 -572,-407 -928,-1007 -1073,-1654z"/>
   <path class="fil2" d="M5427 15729c-433,-163 -883,-376 -1285,-649 9,26 18,51 27,77 319,858 1086,1434 1991,1827 -359,-348 -603,-786 -733,-1255z"/>
   <path class="fil1" d="M5472 15876c-354,-128 -719,-289 -1064,-486 315,595 876,1034 1539,1360 -212,-261 -370,-559 -475,-874z"/>
   <path class="fil2" d="M5526 16025c-257,-88 -507,-187 -746,-298 264,320 611,583 1005,801 -103,-159 -190,-328 -259,-503z"/>
   <path class="fil1" d="M5591 16176c-88,-29 -175,-59 -260,-90 103,80 212,155 327,226 -24,-45 -46,-90 -67,-136z"/>
   <g>
    <path class="fil0" d="M4617 17224c463,101 923,183 1379,242 221,577 782,1073 1518,1315 18,59 39,118 64,179 55,132 120,252 195,361 -1407,60 -2753,-782 -3156,-2097zm2837 1273l1 4 -1 -4zm-12 -134l1 2 0 2 0 1 0 -1 0 0 0 -2 -1 0 0 -2zm1 5l0 1 0 3 0 0 0 -2 0 0 0 -1 0 0 0 -1zm0 4l0 2 0 0 0 0 0 -2zm0 2l1 18 0 0 0 -2 0 0 0 -2 0 -1 0 0 0 -2 0 -2 0 0 0 -2 -1 -2 0 -1 0 0 0 -1 0 -1 0 -2zm1 18l0 2 0 0 0 0 0 -2zm0 2l1 2 0 0 -1 -2zm1 3l0 0 0 0 0 0zm0 0l1 16 0 0 0 -1 0 -1 0 -1 -1 -2 0 -2 0 -1 0 0 0 -1 0 -1 0 -2 0 -2 0 -2zm1 16l0 1 0 -1zm0 1l0 1 0 2 0 0 0 -2 0 0 0 -1zm0 3l0 2 0 -2zm0 2l0 2 0 0 0 -2zm1 5l2 20 -1 -2 0 -1 0 -1 0 -2 0 -1 0 0 0 -2 0 -2 -1 -1 0 -1 0 0 0 -2 0 -1 0 -2 0 -2zm2 23l0 2 0 -2zm0 4l0 1 0 -1zm1 6l0 0 0 1 0 0 0 -1zm0 3l0 1 0 0 0 -1zm1 5l0 2 0 0 0 -2z"/>
   </g>
   <g>
    <path class="fil1" d="M6052 17597c-419,-52 -835,-123 -1247,-208 111,278 268,534 465,761 383,443 899,760 1460,923 316,92 642,135 967,128 -44,-75 -84,-156 -119,-241 -25,-61 -46,-120 -64,-179 -680,-223 -1210,-664 -1462,-1184zm1399 870l0 -2 0 0 0 2zm0 -2l0 -1 0 1zm-1 -4l0 -1 0 1zm0 -3l0 -1 0 1zm-1 -6l0 -1 0 0 0 1zm0 -1l0 0 0 0zm0 -2l0 -2 0 0 0 -2 0 2 0 2 0 0zm0 -4l0 -1 0 1 0 0zm0 -1l-2 -20 0 0 2 20zm-2 -20l0 0 0 0zm-1 -3l0 -2 0 2zm0 -2l0 -2 0 2zm0 -2l0 -2 0 2zm0 -4l-1 -16 0 0 1 16zm0 2l0 -1 0 1zm-1 -16l0 -2 0 0 0 2zm0 -3l-1 -2 0 0 0 0 0 -2 -1 -18 0 0 0 0 0 -2 0 -3 0 0 0 -1 0 1 0 1 0 0 0 2 0 0 0 2 0 2 0 1 0 1 0 1 1 2 0 2 0 0 0 2 0 2 0 0 0 1 0 2 0 0 0 2 0 0 0 2 1 2 0 0zm-2 -28l0 -1 0 1zm0 -1l0 -2 0 2 0 0zm0 -2l-1 0 0 0 0 -2 1 2z"/>
   </g>
   <g>
    <path class="fil2" d="M6123 17729c-371,-44 -741,-103 -1108,-173 94,184 211,356 347,514 566,654 1416,1005 2269,1007 -19,-38 -36,-77 -53,-117 -25,-61 -46,-120 -64,-179 -622,-204 -1118,-590 -1391,-1052zm1328 738l0 -2 0 0 0 2zm0 -2l0 -1 0 1zm-1 -4l0 -1 0 1zm0 -3l0 -1 0 1zm-1 -6l0 -1 0 0 0 1zm0 -1l0 0 0 0zm0 -2l0 -2 0 2zm0 -4l0 -1 0 1zm0 2l0 -2 0 2zm-1 -12l0 -2 0 0 -1 -2 0 0 1 4zm0 -2l-1 -2 0 0 1 2zm-1 -4l0 -1 0 0 0 -2 0 -2 0 0 0 5zm0 -1l0 -2 0 0 0 -2 0 0 0 4zm-1 -7l0 -2 0 2zm0 -2l0 -2 0 2zm0 -2l0 -2 0 2zm0 -4l-1 -16 0 0 1 16zm0 2l0 -1 0 1zm-1 -16l0 -2 0 0 0 2zm0 -3l-1 -2 0 0 0 0 0 -2 -1 -14 0 1 1 2 0 2 0 0 0 2 0 2 0 0 0 1 0 2 0 0 0 2 0 0 0 2 1 2 0 0zm-2 -18l0 -1 0 1zm0 -1l0 -3 0 2 0 1zm0 -3l0 0 0 0 0 -2 0 -3 0 0 0 -1 0 1 0 1 0 0 0 2 0 0 0 2zm0 -6l0 -1 0 1zm0 -1l0 -2 0 2 0 0zm0 -2l-1 0 0 -2 1 2z"/>
   </g>
   <g>
    <path class="fil1" d="M6209 17862c-320,-35 -639,-82 -957,-138 499,767 1403,1209 2323,1229 -24,-58 -44,-115 -61,-172 -561,-184 -1020,-516 -1305,-919zm1245 631l0 -1 0 0 0 1zm0 -1l0 0 0 0 0 0zm-1 -7l0 0 0 0zm0 -1l0 0 0 0zm0 0l0 1 0 -1zm0 2l0 0 0 0zm-3 -23l1 0 -1 0 0 0zm1 7l0 0 0 0 0 0zm0 1l0 0 0 0 0 0zm-2 -21l0 0 0 0zm0 0l0 -1 0 0 0 1zm0 -3l0 -1 0 1 0 0zm0 -1l0 0 0 -2 0 2zm0 -2l-1 -1 1 1 0 0 0 0zm-1 -1l0 0 0 -2 0 2zm0 -2l0 0 0 0 0 0zm0 0l0 -1 0 1zm0 -1l0 0 0 -2 0 0 0 2zm0 -4l0 -2 0 2 0 0zm0 -2l0 0 0 -1 0 0 0 1zm-1 -3l0 0 0 0 0 0zm0 0l0 -1 0 0 0 1zm0 -4l0 0 0 0zm0 -3l0 -2 0 0 -1 -1 0 -2 1 5zm-1 -6l0 -1 0 1zm1 4l-1 -1 0 0 1 1zm-1 -3l0 -1 0 1zm0 -2l0 -2 0 1 0 1zm0 -2l0 0 0 -1 0 1zm0 -1l0 0 0 0zm0 0l0 -2 0 2 0 0zm0 -2l0 0 0 -1 0 0 0 -2 0 3zm0 -3l-1 -1 1 1 0 0zm-1 -1l0 0 0 -2 0 -1 0 3zm0 -3l0 0 0 -1 0 -1 0 -1 0 0 0 3zm0 -6l0 -2 0 0 0 2zm0 0l0 -2 0 0 0 2zm0 -3l-1 -2 1 2 0 0 0 0zm-1 -12l-1 -4 1 4zm-1 -5l0 -1 0 -3 0 4zm0 -4l0 -1 0 -3 0 4zm1 10l0 -1 0 1zm-1 -5l0 -2 0 0 0 2zm0 -5l0 -1 0 0 0 1zm0 -3l0 -1 0 -1 0 2zm0 -3l0 -1 0 1 0 0zm0 -1l0 0 0 0zm0 0l0 0 0 -2 0 2zm0 -2l-1 -1 0 0 0 -2 0 2 1 1 0 0 0 0z"/>
   </g>
   <g>
    <path class="fil2" d="M6313 17996c-261,-26 -522,-60 -781,-101 486,574 1234,905 1997,934 -5,-16 -10,-32 -15,-48 -497,-163 -915,-443 -1201,-785zm1132 401l0 0 0 0zm-1 -7l0 0 0 0zm0 0l0 0 0 0 0 0zm0 -1l0 0 0 0 0 0zm0 -1l0 -1 0 0 0 1zm0 -2l0 -1 0 1 0 0zm0 -1l0 0 0 0 0 -1 0 0 0 1 0 0zm-1 -5l0 0 0 0zm0 -1l0 0 0 0zm0 -1l0 0 0 0 0 -1 0 0 0 1zm0 3l0 -1 0 1zm0 -1l0 -1 0 1zm0 -1l0 -1 0 1zm0 -1l0 0 0 -1 0 0 0 1zm0 -3l0 0 0 0zm0 -1l0 0 0 0zm0 -1l0 0 0 0zm0 -1l0 -1 0 1zm0 -1l0 -1 0 1zm0 5l0 -1 0 1zm0 -1l0 -1 0 1zm0 -1l0 -1 0 1zm0 -1l0 -1 0 1zm0 -2l0 0 0 0zm0 -2l0 -1 0 0 0 0 0 -1 0 1 0 0 0 0 0 0 0 1 0 0zm0 -2l0 0 0 -1 0 1zm0 -1l0 0 0 0 0 0zm0 0l0 0 0 -1 0 1zm0 -1l-1 -1 0 0 0 0 0 -1 0 1 0 0 0 0 0 1 1 0 0 0z"/>
   </g>
   <path class="fil1" d="M6436 18131c-187,-17 -374,-38 -560,-62 381,330 868,541 1377,613 -320,-140 -598,-329 -817,-551zm1005 213l-1 -26 0 3 0 0 0 0 0 1 0 0 0 0 0 0 0 1 0 0 0 0 0 1 1 5 0 3 0 1 0 0 0 1 0 0 0 0 0 1 0 0 0 0 0 1 0 0 0 0 0 3 0 0 0 0 0 1 0 0 0 1 0 1 0 0 0 0 0 1 0 1z"/>
   <path class="fil2" d="M6581 18266c-82,-7 -163,-14 -245,-21 162,92 336,167 516,222 -96,-62 -187,-130 -271,-201z"/>
   <path class="fil0" d="M15546 7335c2069,908 842,3938 -1339,4745 31,20 63,38 96,54l0 1249c627,-451 1204,-1212 1630,-1812 31,1086 -100,2070 -687,2763 660,-512 1133,-1225 1116,-1702 107,354 149,738 122,1121 2197,-3166 2262,-5973 -938,-6418z"/>
   <path class="fil1" d="M16167 7589c598,172 1151,485 1474,1042 601,1035 158,2459 -315,3454 -237,499 -522,982 -834,1444 0,-307 -44,-611 -130,-897 17,477 -456,1190 -1116,1702 587,-693 718,-1677 687,-2763 -426,600 -1003,1361 -1630,1812l0 -1208c520,-202 990,-528 1378,-928 407,-419 740,-941 917,-1500 158,-499 196,-1052 -4,-1545 -99,-242 -245,-446 -427,-613z"/>
   <path class="fil2" d="M16552 7857c401,177 754,442 983,835 577,995 133,2387 -320,3340 -207,437 -454,868 -730,1289 -15,-236 -56,-468 -123,-689 17,477 -456,1190 -1116,1702 587,-693 718,-1677 687,-2763 -426,600 -1003,1361 -1630,1812l0 -1077c554,-207 1055,-549 1466,-973 420,-434 764,-972 946,-1549 167,-527 204,-1108 -8,-1628 -43,-107 -95,-206 -155,-299z"/>
   <path class="fil1" d="M16835 8146c239,153 445,352 594,608 553,953 108,2315 -324,3225 -184,388 -400,770 -639,1145 -21,-168 -56,-333 -104,-492 17,477 -456,1190 -1116,1702 587,-693 718,-1677 687,-2763 -426,600 -1003,1361 -1630,1812l0 -948c576,-206 1108,-557 1554,-1017 433,-447 787,-1001 975,-1597 172,-542 210,-1137 3,-1675z"/>
   <path class="fil2" d="M17056 8475c102,99 192,212 267,341 528,910 83,2244 -329,3111 -163,342 -350,681 -557,1013 -20,-104 -45,-207 -75,-308 17,477 -456,1190 -1116,1702 587,-693 718,-1677 687,-2763 -426,600 -1003,1361 -1630,1812l0 -818c609,-210 1172,-577 1642,-1062 447,-460 810,-1031 1004,-1645 141,-446 195,-925 107,-1383z"/>
   <path class="fil1" d="M17221 8884c497,868 53,2168 -338,2990 -143,301 -305,600 -484,894 -11,-46 -23,-91 -37,-136 3,75 -7,156 -27,241 -293,471 -624,931 -979,1373 -36,30 -73,60 -110,89 566,-669 708,-1608 689,-2648 33,-32 66,-65 98,-98 460,-475 833,-1062 1033,-1694 103,-327 161,-670 155,-1011zm-2918 4499l0 -689c498,-166 966,-432 1382,-781 -390,526 -869,1102 -1382,1470z"/>
   <path class="fil2" d="M17295 9479c120,775 -226,1718 -522,2342 -301,633 -689,1254 -1127,1848 218,-528 291,-1148 291,-1815 63,-58 124,-118 184,-180 473,-488 856,-1092 1062,-1742 47,-148 85,-300 112,-453zm-2992 3904l0 -560c386,-124 756,-307 1098,-541 -329,412 -704,818 -1098,1101z"/>
   <path class="fil1" d="M17136 10396c-99,505 -299,1004 -474,1373 -243,511 -544,1015 -883,1503 103,-385 148,-806 156,-1251 94,-83 186,-170 274,-262 370,-382 698,-852 927,-1363zm-2833 2987l0 -431c293,-92 577,-216 847,-369 -264,303 -550,586 -847,800z"/>
   <path class="fil2" d="M16708 11361c-53,129 -106,248 -157,355 -198,417 -435,828 -700,1230 44,-242 69,-496 79,-759 127,-107 250,-221 367,-342 145,-149 283,-311 411,-484zm-2405 2022l0 -303c207,-63 410,-141 607,-234 -194,202 -398,387 -607,537z"/>
   <path class="fil1" d="M16223 12090c-102,189 -212,376 -328,562 11,-98 20,-198 27,-299 103,-83 204,-171 301,-263zm-1920 1293l0 -175c123,-36 245,-78 364,-124 -119,109 -240,210 -364,299z"/>
   <path class="fil3" d="M14303 13383l0 -48c35,-10 70,-20 105,-31 -35,27 -70,54 -105,79z"/>
   <path class="fil0" d="M18156 10815c-425,797 -993,1498 -1726,2087 188,927 -43,1991 -792,2731 419,-259 719,-575 784,-878 13,266 -9,535 -64,796 1714,-1384 2243,-2975 1798,-4736zm-1862 2193c-173,133 -356,259 -548,380 -108,353 -268,672 -500,946 502,-389 896,-896 1048,-1326z"/>
   <path class="fil1" d="M18105 11155c92,488 108,983 22,1477 -192,1102 -865,2003 -1736,2734 30,-202 41,-407 31,-611 -65,303 -365,619 -784,878 712,-704 956,-1701 816,-2594 643,-506 1202,-1127 1651,-1884zm-2420 2414c175,-105 346,-217 512,-336 -192,374 -534,778 -951,1102 191,-227 334,-484 439,-766z"/>
   <path class="fil2" d="M18034 11501c42,368 37,739 -28,1110 -179,1027 -792,1877 -1593,2576 13,-144 16,-288 9,-432 -65,303 -365,619 -784,878 675,-667 929,-1597 835,-2453 596,-460 1123,-1014 1561,-1679zm-2426 2256c150,-86 297,-177 440,-273 -198,298 -478,599 -802,850 148,-175 267,-368 362,-577z"/>
   <path class="fil1" d="M17937 11856c7,244 -9,489 -52,734 -166,957 -725,1757 -1462,2423 3,-86 3,-172 -1,-258 -43,200 -189,407 -404,599 -123,95 -249,188 -377,277l-3 2c637,-630 899,-1494 848,-2308 543,-410 1031,-896 1451,-1469zm-2428 2096c112,-61 223,-124 331,-190 -169,202 -371,399 -594,572 101,-119 188,-246 263,-382z"/>
   <path class="fil2" d="M17807 12224c-9,115 -22,230 -42,345 -155,890 -664,1643 -1340,2277 -1,-30 -2,-61 -3,-91 -10,44 -24,89 -43,133 -130,119 -265,234 -405,344 363,-527 528,-1152 518,-1759 483,-356 924,-770 1315,-1249zm-2426 1935c58,-30 117,-61 175,-93 -97,94 -201,184 -310,269 48,-57 93,-116 135,-176z"/>
   <path class="fil1" d="M17631 12615c-178,907 -740,1669 -1469,2303 208,-406 314,-851 328,-1292 411,-296 794,-631 1141,-1011z"/>
   <path class="fil2" d="M17387 13040c-216,602 -610,1133 -1100,1599 107,-277 171,-567 195,-857 319,-223 621,-470 905,-742z"/>
   <path class="fil1" d="M17030 13521c-176,307 -399,594 -657,860 41,-144 72,-291 91,-438 195,-132 384,-273 566,-422z"/>
   <path class="fil2" d="M16483 14079c-17,19 -34,39 -51,58 2,-9 4,-19 6,-28 15,-10 30,-20 45,-30z"/>
   <path class="fil0" d="M18229 13725c-296,560 -916,1055 -1814,1435 -73,890 -528,1751 -1374,2227 375,-92 671,-253 808,-473 1,179 -32,356 -94,526 1954,-834 2589,-2127 2474,-3715zm-2143 1565c-68,25 -137,49 -208,73 -73,94 -153,184 -240,270 172,-106 324,-222 448,-343z"/>
   <path class="fil1" d="M15727 15541c31,-10 62,-20 93,-30 -58,42 -118,83 -182,122 31,-30 60,-61 89,-92zm673 -242c634,-261 1297,-645 1719,-1182 -4,397 -62,792 -202,1168 -306,824 -939,1390 -1698,1799 -136,73 -275,140 -416,203 31,-122 47,-247 46,-373 -137,220 -433,381 -808,473 802,-451 1253,-1248 1359,-2088z"/>
   <path class="fil2" d="M16379 15440c566,-227 1158,-547 1600,-983 -27,267 -82,531 -177,785 -295,795 -909,1340 -1641,1734 -107,57 -216,112 -328,163 11,-74 17,-149 16,-225 -137,220 -433,381 -808,473 757,-426 1201,-1160 1338,-1947z"/>
   <path class="fil1" d="M16351 15583c501,-194 1023,-459 1457,-810 -29,145 -69,287 -121,426 -284,767 -879,1289 -1584,1669 -84,45 -169,88 -256,129 2,-28 2,-55 2,-83 -29,47 -66,91 -109,133 -150,68 -305,131 -463,190 572,-407 929,-1007 1074,-1654z"/>
   <path class="fil2" d="M16314 15729c433,-163 883,-376 1285,-649 -8,26 -17,51 -27,77 -319,858 -1086,1434 -1991,1827 359,-348 604,-786 733,-1255z"/>
   <path class="fil1" d="M16269 15876c354,-128 719,-289 1065,-486 -315,595 -877,1034 -1539,1361 211,-262 370,-560 474,-875z"/>
   <path class="fil2" d="M16215 16025c258,-88 507,-187 746,-298 -263,320 -610,583 -1005,801 104,-159 190,-328 259,-503z"/>
   <path class="fil1" d="M16151 16176c87,-29 174,-59 260,-90 -104,80 -213,155 -328,226 24,-45 46,-90 68,-136z"/>
   <g>
    <path class="fil0" d="M17124 17224c-463,101 -923,183 -1378,242 -222,577 -783,1073 -1519,1315 -17,59 -39,118 -64,179 -54,132 -120,252 -194,361 1406,60 2752,-782 3155,-2097zm-2858 1404l0 -1 0 0 0 -1 0 -1 -1 4 0 0 1 -1zm0 -3l0 0 0 -1 1 -1 -1 2zm1 -2l0 -1 0 -1 0 -1 1 -3 0 -1 1 -5 1 -3 0 -2 0 0 -3 17zm3 -18l0 -2 1 -1 0 -3 0 1 -1 6 0 -1zm1 -6l0 0 1 -5 0 0 -1 5zm2 -10l0 -1 0 0 1 -6 -1 7zm0 1l-1 4 1 -4zm-8 39l-1 5 1 -5zm-1 6l-1 5 1 -5 0 0zm35 -272l0 2 0 2 0 1 0 -1 0 0 0 -2 0 0 0 -2zm0 5l0 1 -1 3 0 0 0 -2 1 0 0 -1 0 0 0 -1zm-1 4l0 2 0 0 0 0 0 -2zm0 3l0 4 0 0 0 -1 0 0 0 -1 0 -1 0 -1zm0 6l0 1 0 -1 0 0zm0 2l0 1 0 1 0 0 0 -1 0 -1 0 0 0 0zm-1 3l0 1 0 -1zm0 2l0 1 0 1 0 0 0 0 0 -1 0 -1 0 0zm0 4l0 1 0 1 0 2 0 0 0 1 0 0 0 2 0 0 0 -6 0 -1 0 0zm-1 8l0 1 0 0 0 -1zm0 2l0 2 0 0 0 1 0 0 0 -1 0 -1 0 -1zm0 4l0 1 0 -1 0 0zm0 3l0 1 0 0 0 1 0 1 0 0 0 -1 0 -1 0 0 0 -2 0 0 0 1zm-1 4l0 1 0 -1zm0 1l0 2 0 -1 0 -1zm0 3l0 1 0 -1 0 0zm0 2l0 1 0 1 0 0 0 -1 0 -1 0 0zm0 4l0 1 0 0 0 -1zm-1 2l0 1 0 0 0 -1zm0 2l0 2 0 1 0 1 0 0 0 1 0 -1 0 0 0 -1 0 -1 0 -1 0 -1zm0 6l0 1 0 1 0 0 0 -1 0 -1 0 0zm-1 4l0 1 0 0 0 1 0 -1 0 -1 0 0zm0 4l0 2 0 -1 0 -1zm0 0l0 -1 0 0 0 1z"/>
   </g>
   <g>
    <path class="fil1" d="M15689 17597c419,-52 836,-123 1247,-208 -110,278 -268,534 -464,761 -384,443 -900,760 -1461,923 -315,92 -641,135 -967,128 44,-75 84,-156 119,-241 25,-61 47,-120 64,-179 680,-223 1210,-664 1462,-1184zm-1426 1043l1 -5 0 0 -1 5zm1 -6l1 -5 0 0 -1 5zm1 -5l1 -4 0 1 0 1 0 0 0 1 -1 1zm1 -4l1 -2 -1 1 0 1 0 0zm2 -8l0 -1 1 -5 1 -3 0 -2 0 0 -2 11zm2 -11l1 -6 0 -1 0 3 -1 1 0 2 0 1zm1 -7l1 -5 0 0 -1 5 0 0zm1 -5l1 -4 -1 4zm1 -6l1 -6 -1 6zm0 0l0 1 0 -1 0 0zm-6 32l0 1 0 1 0 1 0 0 0 -3zm23 -152l0 0 0 0zm0 0l3 -23 0 0 0 -1 0 1 -1 2 0 2 0 1 0 1 0 0 0 0 0 1 -1 7 0 5 0 1 -1 2 0 1zm3 -25l0 -2 0 1 0 1zm0 -4l0 -1 0 0 0 1zm0 -1l0 -1 0 0 0 1zm1 -3l0 -1 0 1 0 0zm0 -1l0 -1 0 0 0 1zm0 -2l0 -1 0 0 0 1zm0 -1l0 -1 0 1 0 0zm0 -1l0 -1 0 -2 0 1 0 1 0 1zm0 -4l0 -1 0 1 0 0zm1 -2l0 -1 0 1 0 0zm0 -3l0 -1 0 1 0 0zm0 -1l0 -1 0 0 0 1zm0 -2l0 -1 0 1zm0 -2l0 -2 0 1 0 1zm0 -2l0 -1 0 0 0 1zm1 -2l0 -1 0 1 0 0zm0 -1l0 -1 0 0 0 1zm0 -1l0 -1 0 1 0 0zm0 -2l0 -2 0 0 0 2 0 0zm0 -3l0 -1 0 0 0 1 0 0zm0 -1l0 -2 0 1 0 1zm0 -3l0 -1 0 1 0 0zm1 -2l0 -6 0 1 0 2 0 0 0 1 0 0 0 2 0 0zm0 -6l0 -1 0 0 0 1zm0 -3l0 -1 0 1 0 0 0 0zm0 -1l0 -1 0 0 0 1zm1 -4l0 -1 0 1 0 0zm0 -1l0 -1 0 1zm0 -2l0 -1 0 0 0 1zm0 -3l0 -4 0 1 0 1 0 1 0 1 0 0zm0 -5l0 -2 1 -3 0 0 0 -1 0 1 0 1 -1 0 0 2 0 0 0 2 0 0zm1 -6l0 -1 0 1zm0 -1l0 -2 0 2 0 0zm0 -2l0 0 0 -2 0 2zm-6 75l0 1 0 -1z"/>
   </g>
   <g>
    <path class="fil2" d="M15618 17729c372,-44 742,-103 1108,-173 -94,184 -211,356 -347,514 -566,654 -1416,1005 -2269,1007 19,-38 37,-77 53,-117 25,-61 47,-120 64,-179 622,-204 1118,-590 1391,-1052zm-1355 911l1 -5 0 0 -1 5zm1 -6l1 -5 0 0 -1 5zm1 -5l1 -4 0 1 0 1 0 0 0 1 -1 1zm1 -4l1 -2 -1 1 0 1 0 0zm2 -8l0 -1 1 -5 1 -3 0 -2 0 0 -2 11zm2 -11l1 -6 0 -1 0 3 -1 1 0 2 0 1zm1 -7l1 -5 0 0 -1 5 0 0zm1 -5l1 -4 -1 4zm1 -6l1 -6 -1 6zm0 0l0 1 0 -1 0 0zm-6 32l0 1 0 1 0 1 0 0 0 -3zm23 -152l0 0 0 0zm0 0l3 -23 0 0 0 -1 0 1 -1 2 0 2 0 1 0 1 0 0 0 0 0 1 -1 7 0 5 0 1 -1 2 0 1zm3 -25l0 -2 0 1 0 1zm0 -4l0 -1 0 0 0 1zm0 -1l0 -1 0 0 0 1zm1 -3l0 -1 0 1 0 0zm0 -1l0 -1 0 0 0 1zm0 -2l0 -1 0 0 0 1zm0 -1l0 -1 0 1 0 0zm0 -1l0 -1 0 -2 0 1 0 1 0 1zm0 -4l0 -1 0 1 0 0zm1 -2l0 -1 0 1 0 0zm0 -3l0 -1 0 1 0 0zm0 -1l0 -1 0 0 0 1zm0 -2l0 -1 0 1zm0 -2l0 -2 0 1 0 1zm0 -2l0 -1 0 0 0 1zm1 -2l0 -1 0 1 0 0zm0 -1l0 -1 0 0 0 1zm0 -1l0 -1 0 1 0 0zm0 -2l0 -2 0 0 0 2 0 0zm0 -3l0 -1 0 0 0 1 0 0zm0 -1l0 -2 0 1 0 1zm0 -3l0 -1 0 1 0 0zm1 -2l0 -6 0 1 0 2 0 0 0 1 0 0 0 2 0 0zm0 -6l0 -1 0 0 0 1zm0 -3l0 -1 0 1 0 0 0 0zm0 -1l0 -1 0 0 0 1zm1 -4l0 -1 0 1 0 0zm0 -1l0 -1 0 1zm0 -2l0 -1 0 0 0 1zm0 -3l0 -4 0 1 0 1 0 1 0 1 0 0zm0 -5l0 -2 1 -3 0 0 0 -1 0 1 0 1 -1 0 0 2 0 0 0 2 0 0zm1 -6l0 -1 0 1zm0 -1l0 -2 0 2 0 0zm0 -2l0 0 0 -2 0 2zm-6 75l0 1 0 -1z"/>
   </g>
   <g>
    <path class="fil1" d="M15532 17862c320,-35 640,-82 957,-138 -499,767 -1402,1209 -2323,1229 24,-58 44,-115 61,-172l0 0c561,-184 1020,-516 1305,-919zm-1264 754l2 -8 -2 8zm-2 8l0 0 0 0 0 0zm26 -177l1 -1 -1 1 0 0zm1 -1l0 0 0 -2 0 0 0 -1 0 3zm0 -3l0 -2 0 2 0 0zm0 -2l0 0 0 0 0 0zm0 0l0 -1 0 1zm0 -1l0 -2 0 2 0 0zm0 -3l1 -3 0 2 -1 1zm1 -3l0 0 0 -1 0 -1 0 1 0 1zm0 -2l1 -18 0 1 0 1 0 1 0 1 0 1 0 2 0 1 0 1 0 1 -1 1 0 2 0 1 0 2 0 1 0 0 0 1zm1 -18l0 0 0 0zm0 0l0 0 1 -2 -1 2zm1 -2l0 -7 0 1 0 2 0 1 0 1 0 1 0 1 0 0zm0 -7l0 -3 0 0 0 1 0 1 0 1 0 0zm0 -5l1 -6 -1 6zm1 -7l0 -2 0 2zm0 1l0 -1 0 1zm0 -9l1 0 -1 0zm1 -1l0 -4 0 4zm0 -5l0 -1 0 -3 0 4zm0 -4l0 -1 0 -3 0 4zm-1 10l1 -1 -1 1zm1 -5l0 -2 0 0 0 2zm0 -5l0 -1 0 0 0 1zm0 -4l1 -1 -1 1zm1 -2l0 -1 0 1 0 0zm0 -1l0 0 0 0zm0 0l0 0 0 -2 0 2zm0 -2l0 -1 0 1 0 0zm0 -1l0 0 0 -2 0 2zm-3 35l0 0 0 0z"/>
   </g>
   <g>
    <path class="fil2" d="M15429 17996c261,-26 521,-60 780,-101 -486,574 -1234,905 -1997,934 5,-16 10,-32 15,-48 498,-163 915,-443 1202,-785zm-1132 403l0 -1 0 0 0 1zm0 -4l0 0 0 0zm0 -6l0 0 0 0 0 0 0 0zm0 -2l0 -1 0 1zm0 -1l0 0 0 0zm0 1l0 1 0 -1zm1 -2l0 0 0 0 0 0 0 0zm0 0l0 -1 0 0 0 1zm0 -1l0 0 0 0 0 0zm0 -1l0 -1 0 1zm0 -2l0 1 0 -1zm0 0l0 -1 0 0 0 1 0 0zm0 -1l0 0 0 0 0 0zm0 -1l0 0 0 -1 0 0 0 1 0 0 0 0 0 0zm0 -1l0 -1 0 0 0 1 0 0zm0 -1l0 -1 0 0 0 1zm0 -1l0 -1 0 0 0 1 0 0zm0 -1l0 0 0 0 0 0zm0 0l0 -1 0 0 0 1zm0 -1l0 -1 0 0 0 1 0 0zm0 -1l0 0 0 0 0 0zm0 -1l0 -1 0 1 0 0zm0 -1l0 0 0 0 0 0 0 0zm0 0l0 -1 0 0 0 1zm1 -1l0 -1 0 1 0 0zm0 -2l0 0 0 0 0 0 0 0 0 0 0 0 0 0zm0 -1l0 -1 0 1 0 0zm0 -1l0 0 0 0 0 0zm0 0l0 -1 0 1 0 0zm0 -1l0 0 0 0 0 -1 0 1zm0 -1l0 0 0 0 0 0zm0 0l0 0 0 -1 0 1z"/>
   </g>
   <path class="fil1" d="M15306 18131c187,-17 373,-38 560,-62 -382,330 -869,541 -1377,613 319,-140 597,-329 817,-551z"/>
   <path class="fil2" d="M15160 18266c82,-7 163,-14 245,-21 -162,92 -336,167 -516,222 96,-62 187,-130 271,-201z"/>
   <polygon class="fil3" points="14292,18456 14291,18456 14292,18451 "/>
   <path class="fil0" d="M5809 11571c425,600 1002,1362 1629,1812l0 1633c-1398,-604 -1673,-1924 -1629,-3445z"/>
   <path class="fil1" d="M7438 13531c-594,-401 -1128,-1063 -1511,-1585 7,710 104,1471 483,2066 259,408 619,685 1028,871l0 -1352z"/>
   <path class="fil2" d="M7438 13678c-521,-333 -995,-861 -1375,-1349 37,571 153,1150 450,1617 235,370 558,625 925,801l0 -1069z"/>
   <path class="fil1" d="M7438 13822c-446,-269 -858,-679 -1212,-1097 59,414 176,817 390,1155 211,331 497,565 822,731l0 -789z"/>
   <path class="fil2" d="M7438 13964c-361,-206 -699,-501 -1005,-824 157,584 463,1034 1005,1330l0 -506z"/>
   <path class="fil1" d="M7438 14105c-242,-131 -475,-302 -695,-495 157,294 382,535 695,719l0 -224z"/>
   <path class="fil0" d="M5379 12632c-23,685 961,1856 2059,2221l0 1540c-1914,-549 -2476,-2374 -2059,-3761z"/>
   <path class="fil1" d="M5390 13194c-68,610 52,1242 356,1775 383,670 989,1086 1692,1296l0 -1283c-308,-97 -601,-253 -859,-434 -360,-251 -697,-578 -949,-938 -85,-122 -172,-265 -240,-416z"/>
   <path class="fil2" d="M5496 13631c16,447 135,890 357,1278 360,630 927,1024 1585,1228l0 -1027c-333,-100 -649,-266 -929,-461 -372,-260 -719,-597 -979,-969 -12,-16 -23,-32 -34,-49z"/>
   <path class="fil1" d="M5667 14051c54,280 151,550 292,797 338,591 866,963 1479,1161l0 -771c-358,-102 -698,-278 -999,-488 -245,-171 -525,-415 -772,-699z"/>
   <path class="fil2" d="M5922 14489c41,103 89,202 144,298 314,552 804,901 1372,1093l0 -515c-383,-104 -748,-290 -1069,-515 -143,-100 -296,-222 -447,-361z"/>
   <path class="fil1" d="M6340 14980c285,369 667,618 1098,770l0 -259c-391,-101 -765,-285 -1098,-511z"/>
   <polygon class="fil2" points="7424,15614 7438,15620 7438,15618 "/>
   <path class="fil0" d="M5320 14755c122,575 1097,1202 2118,1380l0 1538c-1481,-355 -2179,-1662 -2118,-2918z"/>
   <path class="fil1" d="M7438 16260c-73,-12 -145,-27 -216,-43 -460,-105 -931,-301 -1320,-569 -149,-103 -310,-234 -442,-386 72,595 324,1169 749,1599 293,296 650,507 1047,634 60,20 121,37 182,52l0 -1287z"/>
   <path class="fil2" d="M7438 16384c-82,-13 -163,-29 -243,-48 -475,-108 -961,-310 -1363,-587 -60,-42 -121,-87 -182,-136 112,434 328,840 646,1161 326,330 719,535 1142,645l0 -1035z"/>
   <path class="fil1" d="M7438 16508c-91,-14 -182,-32 -271,-52 -375,-86 -860,-266 -1283,-527 117,281 283,541 499,759 302,305 665,498 1055,605l0 -785z"/>
   <path class="fil2" d="M7438 16632c-101,-15 -200,-34 -298,-57 -288,-66 -631,-182 -963,-345 83,134 181,259 293,372 277,279 610,459 968,562l0 -532z"/>
   <path class="fil1" d="M7438 16756c-110,-16 -219,-37 -326,-61 -166,-38 -349,-92 -536,-161 249,245 544,406 862,503l0 -281z"/>
   <path class="fil2" d="M7438 16880c-47,-7 -95,-14 -142,-23 47,19 94,36 142,51l0 -28z"/>
   <path class="fil0" d="M5892 16914c219,351 842,551 1546,561l0 733c0,208 20,387 76,573 -964,-317 -1626,-1069 -1622,-1867z"/>
   <path class="fil1" d="M6054 17247c144,593 667,1059 1211,1306 70,32 142,61 213,87 -29,-138 -40,-277 -40,-432l0 -609c-220,-3 -440,-25 -649,-67 -238,-48 -517,-135 -735,-285z"/>
   <path class="fil2" d="M6280 17507c209,418 620,746 1036,935 46,21 92,40 139,58 -12,-93 -17,-189 -17,-292l0 -487c-228,-3 -456,-25 -673,-69 -157,-31 -325,-78 -485,-145z"/>
   <path class="fil1" d="M6573 17734c212,260 504,465 794,596 25,12 50,23 75,33 -2,-50 -4,-101 -4,-155l0 -364c-237,-3 -472,-26 -697,-71 -55,-12 -111,-24 -168,-39z"/>
   <path class="fil2" d="M6946 17929c148,119 311,217 471,289l21 10 0 -20 0 -245c-162,-2 -328,-13 -492,-34z"/>
   <polygon class="fil1" points="7422,18085 7438,18093 7438,18086 "/>
   <path class="fil0" d="M15933 11571c-426,600 -1003,1361 -1630,1812l0 1633c1399,-604 1673,-1924 1630,-3445z"/>
   <path class="fil1" d="M14303 13531c594,-401 1128,-1063 1511,-1585 -7,710 -104,1471 -482,2066 -260,408 -619,685 -1029,871l0 -1352z"/>
   <path class="fil2" d="M14303 13678c521,-333 996,-861 1375,-1349 -36,571 -153,1150 -450,1617 -235,370 -557,625 -925,801l0 -1069z"/>
   <path class="fil1" d="M14303 13822c446,-269 858,-679 1212,-1097 -59,414 -175,817 -390,1155 -211,331 -496,565 -822,731l0 -789z"/>
   <path class="fil2" d="M14303 13964c361,-206 699,-501 1005,-824 -156,584 -463,1034 -1005,1330l0 -506z"/>
   <path class="fil1" d="M14303 14105c243,-131 475,-302 695,-495 -157,294 -382,535 -695,719l0 -224z"/>
   <path class="fil0" d="M16362 12632c24,685 -961,1856 -2059,2221l0 1540c1914,-549 2477,-2374 2059,-3761z"/>
   <path class="fil1" d="M16352 13194c67,610 -53,1242 -357,1775 -382,670 -989,1086 -1692,1296l0 -1283c308,-97 601,-253 859,-434 361,-251 697,-578 949,-938 85,-122 172,-265 241,-416z"/>
   <path class="fil2" d="M16245 13631c-16,447 -135,890 -356,1278 -360,630 -928,1024 -1586,1228l0 -1027c333,-100 650,-266 929,-461 373,-260 720,-597 980,-969 11,-16 22,-32 33,-49z"/>
   <path class="fil1" d="M16074 14051c-54,280 -151,550 -292,797 -337,591 -866,963 -1479,1161l0 -771c358,-102 699,-278 1000,-488 244,-171 524,-415 771,-699z"/>
   <path class="fil2" d="M15819 14489c-41,103 -89,202 -143,298 -315,552 -804,901 -1373,1093l0 -515c383,-104 748,-290 1070,-515 143,-100 295,-222 446,-361z"/>
   <path class="fil1" d="M15401 14980c-285,369 -667,618 -1098,770l0 -259c391,-101 765,-285 1098,-511z"/>
   <polygon class="fil2" points="14317,15614 14303,15620 14303,15618 "/>
   <path class="fil0" d="M16422 14755c-123,575 -1098,1202 -2119,1380l0 1538c1481,-355 2180,-1662 2119,-2918z"/>
   <path class="fil1" d="M14303 16260c73,-12 145,-27 216,-43 460,-105 932,-301 1321,-569 148,-103 309,-234 441,-386 -72,595 -324,1169 -749,1599 -293,296 -650,507 -1046,634 -61,20 -122,37 -183,52l0 -1287z"/>
   <path class="fil2" d="M14303 16384c82,-13 164,-29 244,-48 475,-108 960,-310 1362,-587 60,-42 122,-87 182,-136 -112,434 -328,840 -646,1161 -325,330 -719,535 -1142,645l0 -1035z"/>
   <path class="fil1" d="M14303 16508c92,-14 182,-32 271,-52 375,-86 860,-266 1283,-527 -116,281 -283,541 -499,759 -302,305 -664,498 -1055,605l0 -785z"/>
   <path class="fil2" d="M14303 16632c101,-15 200,-34 298,-57 289,-66 631,-182 964,-345 -84,134 -182,259 -294,372 -277,279 -609,459 -968,562l0 -532z"/>
   <path class="fil1" d="M14303 16756c110,-16 219,-37 326,-61 167,-38 349,-92 536,-161 -248,245 -544,406 -862,503l0 -281z"/>
   <path class="fil2" d="M14303 16880c48,-7 95,-14 142,-23 -47,19 -94,36 -142,51l0 -28z"/>
   <path class="fil0" d="M15849 16914c-219,351 -842,551 -1546,561l0 733c0,208 -20,387 -76,573 964,-317 1627,-1069 1622,-1867z"/>
   <path class="fil1" d="M15687 17247c-144,593 -667,1059 -1211,1306 -70,32 -141,61 -213,87 29,-138 40,-277 40,-432l0 -609c221,-3 440,-25 649,-67 239,-48 517,-135 735,-285z"/>
   <path class="fil2" d="M15462 17507c-210,418 -621,746 -1037,935 -46,21 -92,40 -139,58 12,-93 17,-189 17,-292l0 -487c229,-3 456,-25 674,-69 156,-31 325,-78 485,-145z"/>
   <path class="fil1" d="M15168 17734c-212,260 -504,465 -793,596 -25,12 -51,23 -76,33 3,-50 4,-101 4,-155l0 -364c237,-3 472,-26 698,-71 55,-12 111,-24 167,-39z"/>
   <path class="fil2" d="M14795 17929c-148,119 -311,217 -471,289l-21 10 0 -20 0 -245c163,-2 328,-13 492,-34z"/>
   <polygon class="fil1" points="14319,18085 14303,18093 14303,18086 "/>
   <path class="fil0" d="M10871 21134c-852,-788 -2704,-744 -3293,-2174 -106,-257 -140,-479 -140,-752 0,-2102 0,-3951 0,-6074 321,-154 570,-515 747,-1084 895,0 1791,0 2686,0 895,0 1790,0 2685,0 178,569 427,930 747,1084 0,2123 0,3972 0,6074 0,273 -34,495 -140,752 -589,1430 -2441,1386 -3292,2174z"/>
   <path class="fil4" d="M9020 11225l-708 0c-135,387 -347,794 -699,1012 0,1991 0,3981 0,5971 0,143 10,271 37,397l1370 0 0 -7380z"/>
   <polygon class="fil5" points="12547,11225 10871,11225 9195,11225 9195,18605 12547,18605 "/>
   <path class="fil6" d="M14091 18605c27,-126 37,-254 37,-397 0,-1990 0,-3980 0,-5971 -352,-218 -564,-625 -699,-1012l-707 0 0 7380 1369 0z"/>
   <path class="fil7" d="M10871 20904c218,-170 473,-296 725,-403 316,-135 642,-246 959,-378 620,-257 1178,-579 1446,-1230 16,-38 30,-76 43,-113l-6346 0c12,37 26,75 42,113 127,309 325,556 588,761 258,200 558,345 858,469 318,132 643,243 959,378 253,107 508,233 726,403z"/>
   <polygon class="fil0" points="10871,5043 11698,7310 14179,7371 12209,8834 12915,11138 10871,9775 8826,11138 9533,8834 7563,7371 10044,7310 "/>
   <polygon class="fil5" points="10871,5401 10130,7430 7922,7485 9675,8787 9044,10846 10871,9628 12697,10846 12066,8787 13820,7485 11611,7430 "/>
   <path class="fil0" d="M10834 11542c18,824 -270,1595 -225,2445 38,711 144,1304 132,2035 -6,327 -20,564 -255,822 -185,203 -366,358 -403,537 317,-234 469,-418 645,-349 -52,113 -57,174 49,287 35,185 -27,397 13,597 44,216 211,342 438,286 257,-63 379,-420 91,-519 -184,-63 -222,23 -217,-200 2,-91 4,-181 7,-271 117,-166 82,-289 -21,-392 190,-91 380,-183 571,-275 -210,-122 -352,-261 -443,-413 -212,-355 -189,-973 -169,-1371 45,-924 291,-1765 -213,-3219z"/>
   <path class="fil0" d="M9907 21074l-66 80c-289,352 -417,311 -819,317l-253 4 201 -161c95,-76 169,-178 265,-250 104,-78 217,-100 333,-94 -69,-34 -132,-79 -187,-138 -85,-91 -124,-189 -177,-300 -24,-53 -51,-104 -89,-148l-151 -176 225 31c396,56 683,299 749,721l19 125 -50 -11zm-1486 -382c1,0 2,1 3,1l130 36 -88 106c-288,352 -417,311 -819,317l-253 3 201 -160c95,-76 169,-179 265,-250 125,-94 264,-107 405,-87 -141,-69 -273,-163 -357,-303 -65,-109 -84,-213 -112,-334 -14,-57 -30,-112 -58,-163l-111 -207 212 81c375,142 608,445 587,871l-5 89zm-687 -201c42,6 84,13 125,22l131 29 -82 111c-271,367 -401,333 -802,361l-253 17 193 -171c91,-82 160,-187 252,-264 105,-88 223,-115 346,-112l-21 -11c-153,-79 -300,-186 -385,-346 -29,-55 -47,-109 -61,-163 8,68 9,140 1,216l24 187 -144 -118c-152,-80 -300,-186 -384,-346 -60,-112 -73,-217 -96,-339 -11,-58 -24,-114 -49,-167l-101 -212 208 92c259,115 443,304 514,554 -2,-14 -5,-28 -7,-43 -11,-57 -24,-114 -49,-166l-102 -213 209 93c368,163 584,476 542,902l-9 87zm-1076 -23c174,-102 359,-60 537,10l204 -4 -166 138c-263,373 -431,292 -820,229l-223 -37 193 -125c12,-8 25,-16 37,-25 -150,55 -306,2 -546,-49l-222 -46 198 -116c99,-58 181,-143 280,-197 180,-97 364,-47 540,32l196 24 -164 111c-15,20 -29,38 -44,55zm-1413 -866c140,-11 272,51 397,130l95 60 -81 79c-309,304 -455,197 -810,67l-213 -79 211 -86c27,-10 53,-23 79,-37 -166,10 -299,-94 -521,-225l-197 -116 222 -46c25,-5 49,-12 73,-19 -185,-8 -315,-142 -540,-318l-182 -143 226 -15c81,-5 160,-26 239,-41 -182,-52 -278,-215 -459,-445l-144 -184 223 42c122,22 248,9 368,36 213,47 335,222 432,414l167 143 -223 -16c-29,6 -56,12 -81,16 141,44 255,153 357,273l227 126 -253 12c-11,5 -23,11 -34,16 168,-1 308,96 436,213l221 92 -230 47c-2,2 -4,3 -5,4zm142 -1138l178 145c315,256 448,619 304,1018l-43 118 -90 -83c-128,-119 -245,-261 -288,-439 -30,-123 -17,-229 -9,-353 3,-42 4,-83 0,-125 1,116 -23,237 -74,359l-36 243 -98 -215c-123,-125 -232,-273 -267,-452 -5,-31 -9,-60 -10,-88 -11,23 -23,45 -36,67l-62 110 -75 -101c-121,-162 -208,-323 -180,-513l-46 -54c-114,-133 -203,-267 -214,-426 -9,20 -17,40 -27,59l-36 76c61,80 103,178 140,295l35 110 -110 5c-455,21 -647,-153 -705,-623l-27 -210 160 129c74,60 155,77 241,107 33,12 64,25 91,39 -86,-111 -164,-240 -197,-375 -31,-122 -20,-230 16,-350 41,-134 99,-246 86,-392l-18 -211 155 136c175,154 269,349 297,557l121 107c157,138 227,319 230,508l60 61c86,87 141,186 170,291l87 77c128,116 222,248 277,393zm668 490c351,201 537,535 454,955l-1 188 -125 -132c-144,-95 -281,-216 -350,-384 -48,-118 -52,-224 -63,-348 -5,-58 -13,-115 -33,-171l-81 -221 199 113zm-694 1182c98,-49 180,-126 277,-171 177,-83 350,-25 515,60l100 51 -75 87c-284,329 -437,236 -801,137l-219 -60 203 -104zm3115 -151c390,92 657,360 687,787l9 126 -115 -35c-164,-50 -327,-127 -437,-269 -78,-99 -109,-200 -152,-316 -20,-54 -43,-107 -76,-155l-136 -189 220 51zm-226 1207c95,-76 169,-178 265,-250 172,-129 370,-105 564,-51l130 35 -88 107c-289,351 -417,311 -819,316l-253 4 201 -161z"/>
   <path class="fil8" d="M4330 17598c681,2321 2613,2727 4388,3100 1226,258 2424,395 3080,1276 -39,102 -119,103 -222,119 -614,-804 -1574,-1021 -2881,-1274 -1808,-380 -3776,-793 -4477,-3185l112 -36z"/>
   <g>
    <path class="fil9" d="M4091 16537c35,404 -375,549 149,1158 120,-250 270,-791 -149,-1158z"/>
    <path class="fil9" d="M4509 17201c25,294 -272,399 108,842 87,-182 196,-575 -108,-842z"/>
    <path class="fil9" d="M3720 17586c223,180 454,28 619,547 -424,19 -567,-134 -619,-547z"/>
    <path class="fil9" d="M3849 18312c304,56 496,-78 740,405 -415,93 -464,-54 -740,-405z"/>
    <path class="fil9" d="M4796 17766c5,296 -299,378 51,848 99,-174 234,-558 -51,-848z"/>
    <path class="fil9" d="M5055 18138c44,291 -174,516 234,931 108,-259 120,-614 -234,-931z"/>
    <path class="fil9" d="M4010 18941c308,-20 464,-199 811,210 -383,193 -464,63 -811,-210z"/>
    <path class="fil9" d="M5514 18678c57,289 -150,524 277,918 96,-265 91,-619 -277,-918z"/>
    <path class="fil9" d="M4443 19435c278,-57 401,-239 762,90 -327,223 -415,115 -762,-90z"/>
    <path class="fil9" d="M4874 19855c251,-101 337,-292 725,-48 -270,265 -369,179 -725,48z"/>
    <path class="fil9" d="M6015 19031c100,276 -68,543 413,860 54,-277 -5,-626 -413,-860z"/>
    <path class="fil9" d="M5398 20215c241,-123 312,-321 719,-111 -248,287 -354,211 -719,111z"/>
    <path class="fil9" d="M5891 20520c246,-144 309,-356 747,-162 -244,317 -359,243 -747,162z"/>
    <path class="fil9" d="M6604 19358c126,264 -17,547 492,813 28,-282 -64,-623 -492,-813z"/>
    <path class="fil9" d="M6426 20754c240,-155 294,-369 740,-194 -231,327 -349,258 -740,194z"/>
    <path class="fil9" d="M7168 19582c126,264 -17,548 492,813 28,-281 -64,-623 -492,-813z"/>
    <path class="fil9" d="M7100 20926c227,-201 251,-434 742,-327 -255,346 -374,302 -742,327z"/>
    <path class="fil9" d="M7811 19814c139,257 10,548 531,785 14,-283 -94,-619 -531,-785z"/>
    <path class="fil9" d="M7646 21064c236,-189 272,-420 757,-286 -272,332 -389,281 -757,286z"/>
    <path class="fil9" d="M8458 20071c169,236 77,541 622,707 -20,-282 -168,-601 -622,-707z"/>
    <path class="fil9" d="M9177 20326c188,220 121,532 678,648 -43,-279 -217,-583 -678,-648z"/>
    <path class="fil9" d="M8301 21262c236,-189 272,-420 757,-287 -272,332 -389,282 -757,287z"/>
    <path class="fil9" d="M9021 21383c236,-189 272,-420 757,-286 -272,332 -389,281 -757,286z"/>
   </g>
   <path class="fil0" d="M11834 21074l66 80c289,352 417,311 819,317l253 4 -201 -161c-95,-76 -168,-178 -264,-250 -104,-78 -218,-100 -334,-94 69,-34 133,-79 187,-138 85,-91 124,-189 177,-300 25,-53 51,-104 89,-148l151 -176 -224 31c-396,56 -684,299 -749,721l-20 125 50 -11zm1486 -382c-1,0 -2,1 -3,1l-129 36 87 106c289,352 417,311 819,317l253 3 -201 -160c-95,-76 -168,-179 -264,-250 -126,-94 -265,-107 -406,-87 141,-69 274,-163 358,-303 64,-109 83,-213 112,-334 13,-57 29,-112 57,-163l112 -207 -213 81c-375,142 -607,445 -586,871l4 89zm687 -201c-42,6 -83,13 -125,22l-131 29 82 111c271,367 401,333 803,361l252 17 -193 -171c-91,-82 -159,-187 -252,-264 -105,-88 -223,-115 -345,-112l20 -11c153,-79 300,-186 385,-346 30,-55 48,-109 61,-163 -8,68 -9,140 -1,216l-23 187 143 -118c153,-80 300,-186 385,-346 59,-112 72,-217 95,-339 11,-58 24,-114 49,-167l102 -212 -209 92c-258,115 -442,304 -514,554 2,-14 5,-28 8,-43 10,-57 24,-114 49,-166l101 -213 -208 93c-368,163 -585,476 -543,902l9 87zm1076 -23c-174,-102 -359,-60 -537,10l-204 -4 166 138c263,373 432,292 820,229l224 -37 -193 -125c-13,-8 -25,-16 -37,-25 150,55 305,2 545,-49l222 -46 -198 -116c-99,-58 -181,-143 -280,-197 -179,-97 -363,-47 -540,32l-196 24 164 111c15,20 30,38 44,55zm1414 -866c-141,-11 -273,51 -398,130l-95 60 81 79c309,304 455,197 810,67l214 -79 -212 -86c-27,-10 -53,-23 -78,-37 166,10 299,-94 520,-225l198 -116 -223 -46c-25,-5 -49,-12 -73,-19 186,-8 315,-142 540,-318l182 -143 -226 -15c-81,-5 -160,-26 -239,-41 182,-52 278,-215 459,-445l144 -184 -223 42c-122,22 -248,9 -367,36 -214,47 -335,222 -433,414l-167 143 224 -16c28,6 55,12 81,16 -142,44 -255,153 -358,273l-227 126 253 12c12,5 23,11 34,16 -168,-1 -308,96 -436,213l-220 92 229 47c2,2 4,3 6,4zm-142 -1138l-179 145c-315,256 -448,619 -304,1018l43 118 90 -83c129,-119 245,-261 288,-439 30,-123 17,-229 9,-353 -2,-42 -4,-83 0,-125 -1,116 23,237 74,359l36 243 98 -215c123,-125 232,-273 267,-452 6,-31 9,-60 11,-88 11,23 22,45 35,67l62 110 75 -101c121,-162 208,-323 180,-513l46 -54c115,-133 203,-267 214,-426 9,20 18,40 27,59l36 76c-60,80 -103,178 -140,295l-35 110 111 5c454,21 646,-153 705,-623l26 -210 -160 129c-74,60 -154,77 -241,107 -33,12 -63,25 -91,39 86,-111 164,-240 198,-375 30,-122 19,-230 -17,-350 -40,-134 -98,-246 -86,-392l18 -211 -154 136c-176,154 -270,349 -297,557l-121 107c-157,138 -227,319 -231,508l-60 61c-85,87 -141,186 -170,291l-86 77c-129,116 -223,248 -277,393zm-669 490c-351,201 -536,535 -454,955l1 188 125 -132c144,-95 281,-216 350,-384 49,-118 52,-224 63,-348 5,-58 13,-115 33,-171l81 -221 -199 113zm694 1182c-97,-49 -179,-126 -277,-171 -177,-83 -350,-25 -515,60l-99 51 74 87c284,329 438,236 801,137l220 -60 -204 -104zm-3115 -151c-390,92 -656,360 -687,787l-9 126 115 -35c164,-50 327,-127 438,-269 77,-99 108,-200 151,-316 21,-54 43,-107 77,-155l136 -189 -221 51zm226 1207c-95,-76 -168,-178 -264,-250 -173,-129 -371,-105 -565,-51l-129 35 87 107c289,351 417,311 820,316l252 4 -201 -161z"/>
   <path class="fil8" d="M17411 17598c-680,2321 -2613,2727 -4388,3100 -1226,258 -2423,395 -3080,1276 40,102 120,103 222,119 614,-804 1575,-1021 2881,-1274 1808,-380 3776,-793 4477,-3185l-112 -36z"/>
   <g>
    <path class="fil9" d="M17650 16537c-34,404 375,549 -148,1158 -120,-250 -270,-791 148,-1158z"/>
    <path class="fil9" d="M17232 17201c-25,294 273,399 -108,842 -87,-182 -196,-575 108,-842z"/>
    <path class="fil9" d="M18021 17586c-223,180 -453,28 -619,547 424,19 567,-134 619,-547z"/>
    <path class="fil9" d="M17893 18312c-304,56 -497,-78 -741,405 415,93 465,-54 741,-405z"/>
    <path class="fil9" d="M16946 17766c-6,296 298,378 -51,848 -100,-174 -235,-558 51,-848z"/>
    <path class="fil9" d="M16686 18138c-44,291 174,516 -234,931 -108,-259 -119,-614 234,-931z"/>
    <path class="fil9" d="M17732 18941c-308,-20 -465,-199 -812,210 383,193 464,63 812,-210z"/>
    <path class="fil9" d="M16227 18678c-57,289 150,524 -277,918 -95,-265 -90,-619 277,-918z"/>
    <path class="fil9" d="M17298 19435c-278,-57 -400,-239 -761,90 326,223 414,115 761,-90z"/>
    <path class="fil9" d="M16867 19855c-250,-101 -336,-292 -725,-48 270,265 369,179 725,48z"/>
    <path class="fil9" d="M15726 19031c-100,276 69,543 -413,860 -54,-277 5,-626 413,-860z"/>
    <path class="fil9" d="M16343 20215c-241,-123 -312,-321 -718,-111 248,287 353,211 718,111z"/>
    <path class="fil9" d="M15851 20520c-247,-144 -309,-356 -747,-162 243,317 358,243 747,162z"/>
    <path class="fil9" d="M15138 19358c-126,264 16,547 -492,813 -28,-282 63,-623 492,-813z"/>
    <path class="fil9" d="M15315 20754c-240,-155 -294,-369 -740,-194 231,327 349,258 740,194z"/>
    <path class="fil9" d="M14573 19582c-126,264 17,548 -492,813 -28,-281 64,-623 492,-813z"/>
    <path class="fil9" d="M14641 20926c-227,-201 -251,-434 -742,-327 256,346 375,302 742,327z"/>
    <path class="fil9" d="M13931 19814c-139,257 -11,548 -532,785 -14,-283 94,-619 532,-785z"/>
    <path class="fil9" d="M14096 21064c-237,-189 -272,-420 -758,-286 273,332 389,281 758,286z"/>
    <path class="fil9" d="M13283 20071c-169,236 -77,541 -622,707 20,-282 168,-601 622,-707z"/>
    <path class="fil9" d="M12564 20326c-188,220 -121,532 -678,648 43,-279 217,-583 678,-648z"/>
    <path class="fil9" d="M13441 21262c-237,-189 -272,-420 -758,-287 273,332 389,282 758,287z"/>
    <path class="fil9" d="M12721 21383c-237,-189 -272,-420 -758,-286 273,332 389,281 758,286z"/>
   </g>
   <path class="fil8" d="M9571 21599c466,57 782,-393 1300,-224 517,-169 833,281 1300,224l7 133c-193,23 -370,-65 -554,-158 -228,-114 -468,-234 -752,-134l-1 -4 -2 4c-284,-100 -523,20 -752,134 -184,93 -361,181 -554,158l8 -133z"/>
   <g>
    <g>
     <g>
      <g>
       <path class="fil0" d="M3510 23313c1070,-454 2322,499 3367,-231 -298,-53 -580,-173 -829,-401 -190,-237 -239,-475 -146,-712 -714,35 -1521,253 -2392,1344z"/>
       <path class="fil4" d="M3771 23140c995,-213 2080,473 2985,-83 -253,-63 -493,-179 -708,-376 -166,-208 -224,-415 -174,-623 -175,10 -348,32 -521,71 -645,149 -1154,531 -1582,1011z"/>
       <path class="fil10" d="M5189 22618c-20,-49 -50,-76 -81,-87 -16,-6 -34,-9 -52,-9 -78,0 -140,63 -140,140 0,78 62,141 140,141 77,0 140,-63 140,-141 0,-15 -2,-30 -7,-44zm-106 -173c0,-5 0,-10 0,-15 0,-121 98,-219 219,-219 112,0 204,84 217,192 21,-6 44,-10 67,-10 121,0 219,98 219,219 0,121 -98,219 -219,219 -12,0 -24,-1 -35,-3 5,20 8,40 8,61 0,121 -98,220 -219,220 -121,0 -219,-99 -219,-220 0,-6 1,-12 1,-18 -21,7 -43,10 -66,10 -121,0 -219,-98 -219,-219 0,-121 98,-219 219,-219 9,0 18,1 27,2zm85 29c13,40 41,71 82,87 16,6 34,10 52,10 27,0 53,-8 74,-21 41,-25 57,-64 65,-102 1,-6 1,-12 1,-18 0,-77 -63,-140 -140,-140 -78,0 -140,63 -140,140 0,16 2,30 6,44zm279 121c-1,5 -1,11 -1,17 0,78 63,140 140,140 78,0 141,-62 141,-140 0,-77 -63,-140 -141,-140 -75,0 -125,51 -139,123zm-107 154c78,0 141,63 141,140 0,78 -63,141 -141,141 -77,0 -140,-63 -140,-141 0,-77 63,-140 140,-140z"/>
       <path class="fil0" d="M6160 21601c1128,-34 2256,-68 3384,-102 284,40 292,308 252,614 -23,-8 -46,-15 -68,-23 -209,148 -294,460 -261,771 -840,-108 -2409,746 -3419,-180 -289,-360 -251,-720 112,-1080z"/>
       <path class="fil4" d="M6198 21687c-284,293 -353,596 -86,934 197,178 424,294 682,355 304,71 625,62 933,25 395,-47 779,-143 1170,-202 172,-26 374,-49 564,-27 -9,-271 72,-531 249,-669 21,-163 32,-361 -42,-451 -33,-40 -80,-58 -129,-66 -1114,34 -2227,68 -3341,101z"/>
       <path class="fil10" d="M8721 22211c-9,-49 -32,-79 -59,-94 -13,-9 -28,-16 -45,-19 -71,-14 -140,32 -155,103 -14,70 32,140 103,154 71,14 140,-32 154,-103 3,-13 4,-27 2,-41zm-65 -178c1,-5 1,-9 2,-14 23,-110 131,-182 241,-159 103,20 172,114 164,216 20,-3 42,-2 63,2 111,23 182,131 160,241 -22,111 -130,183 -241,160 -11,-2 -22,-5 -32,-9 1,19 0,38 -4,58 -22,110 -130,182 -241,160 -110,-23 -182,-131 -159,-241 1,-6 2,-12 4,-17 -21,2 -42,1 -63,-3 -110,-22 -182,-130 -160,-241 23,-111 131,-182 241,-160 9,2 17,4 25,7zm73 42c3,39 24,72 58,95 14,9 29,15 46,19 25,5 50,2 72,-6 41,-15 64,-47 78,-81 2,-5 3,-11 4,-16 15,-71 -31,-140 -102,-154 -71,-15 -140,31 -155,102 -2,14 -3,28 -1,41zm232 162c-2,5 -3,10 -4,16 -14,71 32,140 102,154 71,15 141,-31 155,-102 14,-71 -32,-140 -103,-155 -69,-14 -124,24 -150,87zm-126 122c71,14 117,83 103,154 -15,71 -84,117 -155,103 -71,-15 -117,-84 -102,-155 14,-71 83,-117 154,-102z"/>
       <path class="fil2" d="M6586 22351c-14,-48 -39,-76 -67,-89 -14,-8 -30,-13 -47,-15 -72,-8 -137,44 -145,116 -8,72 44,137 116,145 72,8 137,-44 145,-116 1,-14 1,-28 -2,-41zm-80 -172c0,-5 0,-9 1,-14 12,-112 114,-192 226,-180 103,12 180,99 181,201 21,-4 42,-5 64,-3 112,13 192,114 180,227 -13,112 -114,193 -226,180 -12,-1 -23,-4 -33,-6 3,18 4,37 2,57 -13,112 -114,193 -227,180 -112,-12 -193,-113 -180,-226 1,-5 2,-11 3,-17 -20,4 -41,5 -63,3 -112,-13 -192,-114 -180,-226 13,-113 114,-193 226,-181 9,1 17,3 26,5zm75 36c8,39 31,70 67,89 14,8 30,13 47,15 25,3 50,-2 71,-12 40,-19 60,-53 71,-88 2,-5 2,-10 3,-16 8,-72 -44,-137 -115,-145 -72,-8 -137,44 -145,116 -2,14 -1,28 1,41zm246 141c-1,5 -2,11 -3,16 -8,72 44,137 116,145 72,8 137,-44 145,-116 8,-72 -44,-136 -116,-145 -70,-7 -121,35 -142,100zm-115 132c72,8 124,73 116,145 -8,72 -73,124 -145,116 -72,-9 -124,-74 -116,-145 8,-72 73,-124 145,-116z"/>
      </g>
      <g>
       <path class="fil0" d="M3948 21478c1917,-329 3132,1282 5596,21 -1865,-7 -3119,-1268 -5596,-21z"/>
       <path class="fil11" d="M4453 21346c364,-4 719,53 1088,141 599,143 1172,343 1790,399 665,59 1265,-61 1857,-316 -474,-41 -926,-152 -1395,-272 -568,-145 -1116,-280 -1708,-283 -574,-2 -1113,122 -1632,331z"/>
      </g>
     </g>
     <g>
      <g>
       <path class="fil0" d="M18231 23313c-1070,-454 -2322,499 -3366,-231 297,-53 579,-173 828,-401 191,-237 239,-475 146,-712 714,35 1521,253 2392,1344z"/>
       <path class="fil4" d="M17971 23140c-995,-213 -2081,473 -2985,-83 252,-63 492,-179 707,-376 167,-208 225,-415 174,-623 175,10 348,32 521,71 646,149 1154,531 1583,1011z"/>
       <path class="fil10" d="M16552 22618c20,-49 50,-76 82,-87 16,-6 33,-9 51,-9 78,0 141,63 141,140 0,78 -63,141 -141,141 -77,0 -140,-63 -140,-141 0,-15 2,-30 7,-44zm106 -173c0,-5 0,-10 0,-15 0,-121 -98,-219 -219,-219 -111,0 -204,84 -217,192 -21,-6 -44,-10 -67,-10 -121,0 -219,98 -219,219 0,121 98,219 219,219 12,0 24,-1 36,-3 -6,20 -9,40 -9,61 0,121 98,220 219,220 121,0 219,-99 219,-220 0,-6 0,-12 -1,-18 21,7 43,10 66,10 121,0 219,-98 219,-219 0,-121 -98,-219 -219,-219 -9,0 -18,1 -27,2zm-85 29c-12,40 -41,71 -82,87 -16,6 -33,10 -52,10 -27,0 -52,-8 -74,-21 -40,-25 -57,-64 -65,-102 -1,-6 -1,-12 -1,-18 0,-77 63,-140 140,-140 78,0 141,63 141,140 0,16 -3,30 -7,44zm-279 121c1,5 1,11 1,17 0,78 -62,140 -140,140 -78,0 -140,-62 -140,-140 0,-77 62,-140 140,-140 76,0 125,51 139,123zm107 154c-78,0 -140,63 -140,140 0,78 62,141 140,141 78,0 140,-63 140,-141 0,-77 -62,-140 -140,-140z"/>
       <path class="fil0" d="M15581 21601c-1128,-34 -2256,-68 -3384,-102 -279,39 -291,301 -253,601 9,-3 18,-7 27,-10 198,148 314,461 309,770 842,-103 2406,745 3413,-179 289,-360 252,-720 -112,-1080z"/>
       <path class="fil4" d="M15543 21687c284,293 354,596 86,934 -196,178 -423,294 -681,355 -304,71 -626,62 -934,25 -395,-47 -778,-143 -1170,-202 -173,-26 -376,-49 -566,-27 -14,-242 -100,-477 -240,-622 -25,-171 -46,-400 36,-498 32,-40 79,-58 128,-66 1114,34 2228,68 3341,101z"/>
       <path class="fil10" d="M13020 22211c10,-49 32,-79 59,-94 13,-9 29,-16 45,-19 71,-14 141,32 155,103 14,70 -32,140 -103,154 -71,14 -140,-32 -154,-103 -3,-13 -3,-27 -2,-41zm65 -178c0,-5 -1,-9 -2,-14 -22,-110 -130,-182 -241,-159 -102,20 -171,114 -163,216 -21,-3 -42,-2 -64,2 -110,23 -182,131 -160,241 23,111 131,183 241,160 12,-2 22,-5 32,-9 -1,19 0,38 4,58 22,110 130,182 241,160 110,-23 182,-131 160,-241 -1,-6 -3,-12 -4,-17 20,2 41,1 62,-3 111,-22 182,-130 160,-241 -23,-111 -130,-182 -241,-160 -9,2 -17,4 -25,7zm-72 42c-4,39 -25,72 -59,95 -14,9 -29,15 -46,19 -25,5 -49,2 -72,-6 -41,-15 -63,-47 -78,-81 -2,-5 -3,-11 -4,-16 -14,-71 32,-140 102,-154 71,-15 141,31 155,102 3,14 3,28 2,41zm-233 162c2,5 3,10 4,16 15,71 -31,140 -102,154 -71,15 -140,-31 -155,-102 -14,-71 32,-140 103,-155 69,-14 124,24 150,87zm126 122c-71,14 -117,83 -102,154 14,71 83,117 154,103 71,-15 117,-84 103,-155 -15,-71 -84,-117 -155,-102z"/>
       <path class="fil2" d="M15156 22351c13,-48 38,-76 66,-89 15,-8 30,-13 47,-15 72,-8 137,44 145,116 8,72 -43,137 -115,145 -72,8 -137,-44 -145,-116 -2,-14 -1,-28 2,-41zm80 -172c0,-5 -1,-9 -1,-14 -13,-112 -114,-192 -226,-180 -104,12 -181,99 -182,201 -20,-4 -42,-5 -63,-3 -112,13 -193,114 -181,227 13,112 114,193 227,180 11,-1 22,-4 32,-6 -3,18 -4,37 -1,57 12,112 114,193 226,180 112,-12 193,-113 180,-226 0,-5 -1,-11 -2,-17 20,4 41,5 62,3 112,-13 193,-114 180,-226 -13,-113 -114,-193 -226,-181 -9,1 -17,3 -25,5zm-76 36c-7,39 -31,70 -67,89 -14,8 -30,13 -47,15 -25,3 -50,-2 -71,-12 -40,-19 -59,-53 -71,-88 -1,-5 -2,-10 -3,-16 -8,-72 44,-137 116,-145 72,-8 137,44 145,116 1,14 1,28 -2,41zm-246 141c1,5 2,11 3,16 8,72 -44,137 -116,145 -72,8 -136,-44 -145,-116 -8,-72 44,-136 116,-145 70,-7 121,35 142,100zm115 132c-72,8 -123,73 -115,145 8,72 73,124 145,116 72,-9 123,-74 115,-145 -8,-72 -73,-124 -145,-116z"/>
      </g>
      <g>
       <path class="fil0" d="M17793 21478c-1916,-329 -3131,1282 -5596,21 1865,-7 3119,-1268 5596,-21z"/>
       <path class="fil11" d="M17289 21346c-365,-4 -720,53 -1089,141 -599,143 -1171,343 -1790,399 -664,59 -1265,-61 -1857,-316 474,-41 927,-152 1395,-272 569,-145 1116,-280 1708,-283 574,-2 1113,122 1633,331z"/>
      </g>
     </g>
    </g>
    <path class="fil0" d="M9728 22090c735,255 1481,289 2243,0 386,288 460,1209 -65,1491 -430,232 -1755,264 -2113,-40 -413,-350 -449,-1179 -65,-1451z"/>
    <path class="fil4" d="M11954 22189c-737,267 -1472,246 -2210,-1 -203,178 -223,537 -172,781 39,187 129,380 277,505 207,176 766,203 1026,200 273,-3 747,-39 990,-170 63,-34 118,-80 163,-135 122,-149 168,-355 165,-545 -4,-211 -75,-484 -239,-635z"/>
    <path class="fil2" d="M10136 22873c-12,-49 -36,-78 -63,-92 -14,-8 -30,-14 -47,-16 -71,-11 -138,38 -149,110 -11,72 39,138 110,149 72,11 139,-38 149,-110 3,-14 2,-28 0,-41zm117 1c30,0 55,25 55,55 0,31 -25,56 -55,56 -31,0 -55,-25 -55,-56 0,-30 24,-55 55,-55zm-191 -176c1,-5 1,-9 2,-14 17,-111 121,-188 232,-172 104,16 177,106 174,208 21,-3 42,-4 64,0 111,16 188,120 172,232 -17,112 -121,189 -233,172 -11,-2 -22,-4 -32,-8 2,19 2,38 -1,58 -17,112 -121,189 -233,172 -111,-17 -188,-121 -171,-233 0,-5 2,-11 3,-16 -20,3 -41,3 -63,0 -111,-17 -188,-121 -171,-233 16,-112 120,-189 232,-172 9,2 17,3 25,6zm75 39c6,38 28,70 63,91 14,8 30,14 47,16 25,4 49,0 71,-9 41,-17 61,-50 74,-85 2,-5 3,-10 4,-16 10,-71 -39,-138 -111,-149 -71,-11 -138,39 -149,110 -2,14 -1,28 1,42zm240 149c-1,6 -2,11 -3,16 -11,72 38,139 110,149 71,11 138,-38 149,-110 11,-71 -39,-138 -110,-149 -70,-10 -123,30 -146,94zm-120 128c72,11 121,78 111,149 -11,72 -78,121 -150,110 -71,-10 -121,-77 -110,-149 11,-71 78,-121 149,-110z"/>
    <path class="fil2" d="M11428 22873c-12,-49 -36,-78 -64,-92 -13,-8 -29,-14 -46,-16 -71,-11 -138,38 -149,110 -11,72 39,138 110,149 72,11 139,-38 149,-110 2,-14 2,-28 0,-41zm117 1c30,0 55,25 55,55 0,31 -25,56 -55,56 -31,0 -55,-25 -55,-56 0,-30 24,-55 55,-55zm-191 -176c0,-5 1,-9 2,-14 16,-111 121,-188 232,-172 103,16 177,106 174,208 21,-3 42,-4 64,0 111,16 188,120 172,232 -17,112 -121,189 -233,172 -11,-2 -22,-4 -33,-8 3,19 3,38 0,58 -17,112 -121,189 -233,172 -111,-17 -188,-121 -171,-233 0,-5 1,-11 3,-16 -20,3 -41,3 -63,0 -111,-17 -188,-121 -172,-233 17,-112 121,-189 233,-172 9,2 17,3 25,6zm75 39c5,38 27,70 63,91 14,8 30,14 46,16 26,4 50,0 72,-9 41,-17 61,-50 74,-85 2,-5 3,-10 4,-16 10,-71 -39,-138 -111,-149 -71,-11 -138,39 -149,110 -2,14 -2,28 1,42zm240 149c-1,6 -3,11 -3,16 -11,72 38,139 110,149 71,11 138,-38 149,-110 11,-71 -39,-138 -110,-149 -70,-10 -123,30 -146,94zm-120 128c72,11 121,78 110,149 -10,72 -77,121 -149,110 -71,-10 -121,-77 -110,-149 11,-71 78,-121 149,-110z"/>
   </g>
   <g>
    <path class="fil0" d="M10076 20287c146,-40 292,-80 438,-119 182,113 360,184 528,210l-63 240 412 -257c157,-44 299,-139 418,-290 -121,-168 -306,-295 -509,-348l-256 -244 11 218 0 0c-193,10 -387,94 -545,280l-578 -78 353 189 -209 199z"/>
    <path class="fil12" d="M11719 20069c-64,-77 -142,-142 -228,-192l-1 0c-70,65 -104,162 -76,312 -94,-137 -72,-268 -29,-363 -306,-123 -667,-49 -854,248 414,333 955,272 1188,-5zm-647 423l25 -96 130 -1 -155 97zm21 -906l4 75 96 21 -100 -96zm130 437l-8 77 -344 -28 352 -49zm315 -28c16,2 28,17 26,33 -2,16 -16,28 -32,26 -17,-1 -28,-16 -27,-32 2,-16 16,-28 33,-27z"/>
   </g>
   <g>
    <g>
     <path class="fil0" d="M11471 19692c145,-44 290,-88 434,-131 185,108 365,174 534,196l-56 242 404 -268c156,-48 295,-147 411,-301 -126,-164 -314,-286 -518,-334l-263 -238 17 218 0 0c-193,15 -384,105 -537,294l-580 -62 358 179 -204 205z"/>
     <path class="fil12" d="M13108 19431c-66,-75 -146,-138 -233,-186l-2 -1c-67,68 -99,165 -67,315 -98,-135 -79,-267 -38,-363 -310,-114 -668,-30 -848,271 423,322 962,246 1188,-36zm-636 440l22 -97 130 -4 -152 101zm-3 -906l6 74 97 18 -103 -92zm141 432l-5 78 -345 -19 350 -59zm315 -35c16,1 28,15 27,32 -1,16 -16,28 -32,27 -16,-1 -28,-16 -27,-32 1,-16 15,-28 32,-27z"/>
    </g>
    <g>
     <path class="fil0" d="M8697 19692c145,-44 290,-88 435,-131 185,108 365,174 533,196l-56 242 405 -268c156,-48 295,-147 411,-301 -127,-164 -315,-286 -519,-334l-262 -238 17 218 0 0c-193,15 -384,105 -537,294l-581 -62 358 179 -204 205z"/>
     <path class="fil12" d="M10335 19431c-67,-75 -147,-138 -234,-186l-1 -1c-68,68 -99,165 -68,315 -97,-135 -78,-267 -38,-363 -310,-114 -668,-30 -847,271 422,322 961,246 1188,-36zm-637 440l23 -97 130 -4 -153 101zm-2 -906l6 74 96 18 -102 -92zm141 432l-6 78 -345 -19 351 -59zm314 -35c16,1 28,15 27,32 -1,16 -15,28 -32,27 -16,-1 -28,-16 -27,-32 1,-16 16,-28 32,-27z"/>
    </g>
   </g>
  </g>
 </g>
</svg>
